<mxfile host="app.diagrams.net" agent="Mozilla/5.0 (Windows NT 10.0; Win64; x64) AppleWebKit/537.36 (KHTML, like Gecko) Chrome/130.0.0.0 Safari/537.36" version="24.8.3">
  <diagram name="Page-1" id="7meJ4TguWpIimtt2nCbU">
    <mxGraphModel dx="810" dy="468" grid="1" gridSize="10" guides="1" tooltips="1" connect="1" arrows="1" fold="1" page="1" pageScale="1" pageWidth="850" pageHeight="1100" math="0" shadow="0">
      <root>
        <mxCell id="0" />
        <mxCell id="1" parent="0" />
        <mxCell id="Q2jFAfs4uQEABFIioy76-4" value="" style="edgeStyle=orthogonalEdgeStyle;rounded=0;orthogonalLoop=1;jettySize=auto;html=1;" edge="1" parent="1" source="Q2jFAfs4uQEABFIioy76-1" target="Q2jFAfs4uQEABFIioy76-3">
          <mxGeometry relative="1" as="geometry" />
        </mxCell>
        <mxCell id="Q2jFAfs4uQEABFIioy76-1" value="" style="ellipse;whiteSpace=wrap;html=1;aspect=fixed;fillColor=#000000;" vertex="1" parent="1">
          <mxGeometry x="410" y="65" width="30" height="30" as="geometry" />
        </mxCell>
        <mxCell id="Q2jFAfs4uQEABFIioy76-2" value="Se presiona el boton de &quot;Encender / Apagar&quot; [Maquina apagada] /&lt;div&gt;Encender maquina y calentar agua&lt;/div&gt;" style="text;html=1;align=left;verticalAlign=middle;resizable=0;points=[];autosize=1;strokeColor=none;fillColor=none;" vertex="1" parent="1">
          <mxGeometry x="450" y="60" width="370" height="40" as="geometry" />
        </mxCell>
        <mxCell id="Q2jFAfs4uQEABFIioy76-16" value="" style="edgeStyle=orthogonalEdgeStyle;rounded=0;orthogonalLoop=1;jettySize=auto;html=1;entryX=0;entryY=0.5;entryDx=0;entryDy=0;" edge="1" parent="1" source="Q2jFAfs4uQEABFIioy76-3" target="Q2jFAfs4uQEABFIioy76-14">
          <mxGeometry relative="1" as="geometry" />
        </mxCell>
        <mxCell id="Q2jFAfs4uQEABFIioy76-3" value="Calentando agua" style="rounded=1;whiteSpace=wrap;html=1;" vertex="1" parent="1">
          <mxGeometry x="365" y="140" width="120" height="60" as="geometry" />
        </mxCell>
        <mxCell id="Q2jFAfs4uQEABFIioy76-5" value="" style="endArrow=classic;html=1;rounded=0;exitX=0;exitY=0.75;exitDx=0;exitDy=0;entryX=0;entryY=0.25;entryDx=0;entryDy=0;" edge="1" parent="1" source="Q2jFAfs4uQEABFIioy76-3" target="Q2jFAfs4uQEABFIioy76-3">
          <mxGeometry width="50" height="50" relative="1" as="geometry">
            <mxPoint x="310" y="260" as="sourcePoint" />
            <mxPoint x="360" y="210" as="targetPoint" />
            <Array as="points">
              <mxPoint x="340" y="155" />
            </Array>
          </mxGeometry>
        </mxCell>
        <mxCell id="Q2jFAfs4uQEABFIioy76-6" value="Se presiona el boton de &quot;Cafe&quot; o &quot;Capuccino&quot;&amp;nbsp;&lt;div&gt;/&amp;nbsp;&lt;span style=&quot;background-color: initial;&quot;&gt;Emitir pitido de error&lt;/span&gt;&lt;/div&gt;" style="text;html=1;align=right;verticalAlign=middle;resizable=0;points=[];autosize=1;strokeColor=none;fillColor=none;" vertex="1" parent="1">
          <mxGeometry x="70" y="150" width="270" height="40" as="geometry" />
        </mxCell>
        <mxCell id="Q2jFAfs4uQEABFIioy76-13" value="" style="ellipse;whiteSpace=wrap;html=1;aspect=fixed;fillColor=#000000;" vertex="1" parent="1">
          <mxGeometry x="410" y="65" width="30" height="30" as="geometry" />
        </mxCell>
        <mxCell id="Q2jFAfs4uQEABFIioy76-14" value="" style="ellipse;whiteSpace=wrap;html=1;aspect=fixed;fillColor=#ffffff;" vertex="1" parent="1">
          <mxGeometry x="530" y="155" width="30" height="30" as="geometry" />
        </mxCell>
        <mxCell id="Q2jFAfs4uQEABFIioy76-15" value="" style="ellipse;whiteSpace=wrap;html=1;aspect=fixed;fillColor=#000000;" vertex="1" parent="1">
          <mxGeometry x="537.5" y="162.5" width="15" height="15" as="geometry" />
        </mxCell>
        <mxCell id="Q2jFAfs4uQEABFIioy76-17" value="Se presiona el boton de &quot;Encender / Apagar&quot; /&lt;div style=&quot;font-size: 9px;&quot;&gt;Cancelar&amp;nbsp;&lt;span style=&quot;background-color: initial; font-size: 9px;&quot;&gt;operacion y apagar maquina&lt;/span&gt;&lt;/div&gt;" style="text;html=1;align=left;verticalAlign=middle;resizable=0;points=[];autosize=1;strokeColor=none;fillColor=none;fontSize=9;" vertex="1" parent="1">
          <mxGeometry x="570" y="150" width="210" height="40" as="geometry" />
        </mxCell>
        <mxCell id="Q2jFAfs4uQEABFIioy76-18" value="Calentando leche" style="rounded=1;whiteSpace=wrap;html=1;" vertex="1" parent="1">
          <mxGeometry x="552.5" y="260" width="120" height="60" as="geometry" />
        </mxCell>
        <mxCell id="Q2jFAfs4uQEABFIioy76-19" value="Esperando eleccion" style="rounded=1;whiteSpace=wrap;html=1;" vertex="1" parent="1">
          <mxGeometry x="365" y="370" width="120" height="60" as="geometry" />
        </mxCell>
        <mxCell id="Q2jFAfs4uQEABFIioy76-20" value="" style="endArrow=classic;html=1;rounded=0;exitX=0.832;exitY=1;exitDx=0;exitDy=0;entryX=0.5;entryY=0;entryDx=0;entryDy=0;exitPerimeter=0;" edge="1" parent="1" source="Q2jFAfs4uQEABFIioy76-3" target="Q2jFAfs4uQEABFIioy76-18">
          <mxGeometry width="50" height="50" relative="1" as="geometry">
            <mxPoint x="410" y="290" as="sourcePoint" />
            <mxPoint x="460" y="240" as="targetPoint" />
            <Array as="points">
              <mxPoint x="465" y="230" />
              <mxPoint x="613" y="230" />
            </Array>
          </mxGeometry>
        </mxCell>
        <mxCell id="Q2jFAfs4uQEABFIioy76-21" value="&lt;div style=&quot;font-size: 8px;&quot;&gt;&lt;div style=&quot;font-size: 8px;&quot;&gt;&lt;span style=&quot;font-size: 8px;&quot;&gt;El agua llega a la temperatura&lt;br style=&quot;font-size: 8px;&quot;&gt;&lt;/span&gt;&lt;span style=&quot;font-size: 8px; background-color: initial;&quot;&gt;ideal&lt;/span&gt;&lt;span style=&quot;background-color: initial; font-size: 8px;&quot;&gt;&amp;nbsp;y se detecta el recipiente de leche / Calentar&amp;nbsp;&lt;/span&gt;&lt;span style=&quot;background-color: initial; font-size: 8px;&quot;&gt;leche&lt;/span&gt;&lt;/div&gt;&lt;/div&gt;" style="text;html=1;align=left;verticalAlign=middle;resizable=0;points=[];autosize=1;strokeColor=none;fillColor=none;fontSize=8;" vertex="1" parent="1">
          <mxGeometry x="480" y="200" width="220" height="30" as="geometry" />
        </mxCell>
        <mxCell id="Q2jFAfs4uQEABFIioy76-22" value="" style="endArrow=classic;html=1;rounded=0;entryX=1;entryY=0.5;entryDx=0;entryDy=0;exitX=0.484;exitY=0.995;exitDx=0;exitDy=0;exitPerimeter=0;" edge="1" parent="1" source="Q2jFAfs4uQEABFIioy76-18" target="Q2jFAfs4uQEABFIioy76-19">
          <mxGeometry width="50" height="50" relative="1" as="geometry">
            <mxPoint x="609" y="321" as="sourcePoint" />
            <mxPoint x="560" y="270" as="targetPoint" />
            <Array as="points">
              <mxPoint x="610" y="360" />
              <mxPoint x="610" y="400" />
            </Array>
          </mxGeometry>
        </mxCell>
        <mxCell id="Q2jFAfs4uQEABFIioy76-23" value="La leche llega a la temperatura&lt;div&gt;ideal&amp;nbsp;&amp;nbsp;&lt;span style=&quot;background-color: initial;&quot;&gt;/ Espera&amp;nbsp;&lt;/span&gt;&lt;span style=&quot;background-color: initial;&quot;&gt;eleccion de bebida&lt;/span&gt;&lt;/div&gt;" style="text;html=1;align=left;verticalAlign=middle;resizable=0;points=[];autosize=1;strokeColor=none;fillColor=none;fontSize=8;" vertex="1" parent="1">
          <mxGeometry x="485" y="360" width="140" height="30" as="geometry" />
        </mxCell>
        <mxCell id="Q2jFAfs4uQEABFIioy76-25" value="" style="endArrow=classic;html=1;rounded=0;exitX=1;exitY=0.75;exitDx=0;exitDy=0;entryX=0.75;entryY=1;entryDx=0;entryDy=0;" edge="1" parent="1" source="Q2jFAfs4uQEABFIioy76-19" target="Q2jFAfs4uQEABFIioy76-18">
          <mxGeometry width="50" height="50" relative="1" as="geometry">
            <mxPoint x="380" y="370" as="sourcePoint" />
            <mxPoint x="430" y="320" as="targetPoint" />
            <Array as="points">
              <mxPoint x="643" y="415" />
            </Array>
          </mxGeometry>
        </mxCell>
        <mxCell id="Q2jFAfs4uQEABFIioy76-26" value="La temperatura del agua baja /&lt;div&gt;Se calienta el agua&lt;/div&gt;" style="text;html=1;align=right;verticalAlign=middle;resizable=0;points=[];autosize=1;strokeColor=none;fillColor=none;fontSize=8;" vertex="1" parent="1">
          <mxGeometry x="260" y="270" width="130" height="30" as="geometry" />
        </mxCell>
        <mxCell id="Q2jFAfs4uQEABFIioy76-27" value="" style="endArrow=classic;html=1;rounded=0;exitX=0.5;exitY=1;exitDx=0;exitDy=0;entryX=0.5;entryY=0;entryDx=0;entryDy=0;" edge="1" parent="1" source="Q2jFAfs4uQEABFIioy76-3" target="Q2jFAfs4uQEABFIioy76-19">
          <mxGeometry width="50" height="50" relative="1" as="geometry">
            <mxPoint x="420" y="300" as="sourcePoint" />
            <mxPoint x="470" y="250" as="targetPoint" />
          </mxGeometry>
        </mxCell>
        <mxCell id="Q2jFAfs4uQEABFIioy76-28" value="&lt;div&gt;No se detecta el recipiente de&amp;nbsp;&lt;/div&gt;&lt;div&gt;leche&amp;nbsp;&lt;span style=&quot;background-color: initial;&quot;&gt;/ Espera&amp;nbsp;&lt;/span&gt;&lt;span style=&quot;background-color: initial;&quot;&gt;eleccion de bebida&lt;/span&gt;&lt;/div&gt;" style="text;html=1;align=left;verticalAlign=middle;resizable=0;points=[];autosize=1;strokeColor=none;fillColor=none;fontSize=8;" vertex="1" parent="1">
          <mxGeometry x="425" y="260" width="140" height="30" as="geometry" />
        </mxCell>
        <mxCell id="Q2jFAfs4uQEABFIioy76-29" value="" style="endArrow=classic;html=1;rounded=0;exitX=0.25;exitY=0;exitDx=0;exitDy=0;entryX=0.25;entryY=1;entryDx=0;entryDy=0;" edge="1" parent="1" source="Q2jFAfs4uQEABFIioy76-19" target="Q2jFAfs4uQEABFIioy76-3">
          <mxGeometry width="50" height="50" relative="1" as="geometry">
            <mxPoint x="370" y="310" as="sourcePoint" />
            <mxPoint x="420" y="260" as="targetPoint" />
          </mxGeometry>
        </mxCell>
        <mxCell id="Q2jFAfs4uQEABFIioy76-31" value="" style="ellipse;whiteSpace=wrap;html=1;aspect=fixed;fillColor=#ffffff;" vertex="1" parent="1">
          <mxGeometry x="290" y="405" width="30" height="30" as="geometry" />
        </mxCell>
        <mxCell id="Q2jFAfs4uQEABFIioy76-32" value="" style="ellipse;whiteSpace=wrap;html=1;aspect=fixed;fillColor=#000000;" vertex="1" parent="1">
          <mxGeometry x="297.5" y="412.5" width="15" height="15" as="geometry" />
        </mxCell>
        <mxCell id="Q2jFAfs4uQEABFIioy76-33" value="Se presiona el boton de &quot;Encender / Apagar&quot; /&lt;div style=&quot;font-size: 9px;&quot;&gt;Cancelar&amp;nbsp;&lt;span style=&quot;background-color: initial; font-size: 9px;&quot;&gt;operacion y apagar maquina&lt;/span&gt;&lt;/div&gt;" style="text;html=1;align=right;verticalAlign=middle;resizable=0;points=[];autosize=1;strokeColor=none;fillColor=none;fontSize=9;" vertex="1" parent="1">
          <mxGeometry x="70" y="400" width="210" height="40" as="geometry" />
        </mxCell>
        <mxCell id="Q2jFAfs4uQEABFIioy76-34" value="" style="endArrow=classic;html=1;rounded=0;exitX=-0.004;exitY=0.825;exitDx=0;exitDy=0;entryX=1;entryY=0.5;entryDx=0;entryDy=0;exitPerimeter=0;" edge="1" parent="1" source="Q2jFAfs4uQEABFIioy76-19" target="Q2jFAfs4uQEABFIioy76-31">
          <mxGeometry width="50" height="50" relative="1" as="geometry">
            <mxPoint x="350" y="280" as="sourcePoint" />
            <mxPoint x="400" y="230" as="targetPoint" />
          </mxGeometry>
        </mxCell>
        <mxCell id="Q2jFAfs4uQEABFIioy76-35" value="Sirviendo cafe" style="rounded=1;whiteSpace=wrap;html=1;" vertex="1" parent="1">
          <mxGeometry x="485" y="520" width="120" height="60" as="geometry" />
        </mxCell>
        <mxCell id="Q2jFAfs4uQEABFIioy76-36" value="Sirviendo leche" style="rounded=1;whiteSpace=wrap;html=1;" vertex="1" parent="1">
          <mxGeometry x="245" y="520" width="120" height="60" as="geometry" />
        </mxCell>
        <mxCell id="Q2jFAfs4uQEABFIioy76-37" value="" style="endArrow=classic;html=1;rounded=0;exitX=0.291;exitY=1.026;exitDx=0;exitDy=0;entryX=0.5;entryY=0;entryDx=0;entryDy=0;exitPerimeter=0;" edge="1" parent="1" source="Q2jFAfs4uQEABFIioy76-19" target="Q2jFAfs4uQEABFIioy76-36">
          <mxGeometry width="50" height="50" relative="1" as="geometry">
            <mxPoint x="400" y="380" as="sourcePoint" />
            <mxPoint x="450" y="330" as="targetPoint" />
            <Array as="points">
              <mxPoint x="400" y="480" />
              <mxPoint x="305" y="480" />
            </Array>
          </mxGeometry>
        </mxCell>
        <mxCell id="Q2jFAfs4uQEABFIioy76-38" value="Se presiona la opcion &quot;Capuchino&quot; [El recipiente de leche debe tener leche suficiente] /&lt;div&gt;Sirve leche&lt;/div&gt;" style="text;html=1;align=right;verticalAlign=middle;resizable=0;points=[];autosize=1;strokeColor=none;fillColor=none;fontSize=8;" vertex="1" parent="1">
          <mxGeometry x="70" y="450" width="330" height="30" as="geometry" />
        </mxCell>
        <mxCell id="Q2jFAfs4uQEABFIioy76-39" value="" style="endArrow=classic;html=1;rounded=0;exitX=1;exitY=0.5;exitDx=0;exitDy=0;entryX=0;entryY=0.5;entryDx=0;entryDy=0;" edge="1" parent="1" source="Q2jFAfs4uQEABFIioy76-36" target="Q2jFAfs4uQEABFIioy76-35">
          <mxGeometry width="50" height="50" relative="1" as="geometry">
            <mxPoint x="450" y="440" as="sourcePoint" />
            <mxPoint x="500" y="390" as="targetPoint" />
          </mxGeometry>
        </mxCell>
        <mxCell id="Q2jFAfs4uQEABFIioy76-40" value="Se finaliza de servir leche /&lt;div&gt;Sirve cafe&lt;/div&gt;" style="text;html=1;align=center;verticalAlign=middle;resizable=0;points=[];autosize=1;strokeColor=none;fillColor=none;fontSize=8;" vertex="1" parent="1">
          <mxGeometry x="360" y="520" width="120" height="30" as="geometry" />
        </mxCell>
        <mxCell id="Q2jFAfs4uQEABFIioy76-41" value="" style="endArrow=classic;html=1;rounded=0;exitX=1;exitY=0.5;exitDx=0;exitDy=0;entryX=1.009;entryY=0.911;entryDx=0;entryDy=0;entryPerimeter=0;" edge="1" parent="1" source="Q2jFAfs4uQEABFIioy76-35" target="Q2jFAfs4uQEABFIioy76-19">
          <mxGeometry width="50" height="50" relative="1" as="geometry">
            <mxPoint x="450" y="440" as="sourcePoint" />
            <mxPoint x="500" y="390" as="targetPoint" />
            <Array as="points">
              <mxPoint x="650" y="550" />
              <mxPoint x="650" y="425" />
            </Array>
          </mxGeometry>
        </mxCell>
        <mxCell id="Q2jFAfs4uQEABFIioy76-42" value="Se finaliza de servir cafe / Espera&lt;div&gt;eleccion de bebida&lt;/div&gt;" style="text;html=1;align=left;verticalAlign=middle;resizable=0;points=[];autosize=1;strokeColor=none;fillColor=none;fontSize=8;" vertex="1" parent="1">
          <mxGeometry x="660" y="460" width="140" height="30" as="geometry" />
        </mxCell>
        <mxCell id="Q2jFAfs4uQEABFIioy76-43" value="" style="endArrow=classic;html=1;rounded=0;exitX=0.624;exitY=1.014;exitDx=0;exitDy=0;exitPerimeter=0;entryX=0.5;entryY=0;entryDx=0;entryDy=0;" edge="1" parent="1" source="Q2jFAfs4uQEABFIioy76-19" target="Q2jFAfs4uQEABFIioy76-35">
          <mxGeometry width="50" height="50" relative="1" as="geometry">
            <mxPoint x="450" y="440" as="sourcePoint" />
            <mxPoint x="500" y="390" as="targetPoint" />
            <Array as="points">
              <mxPoint x="440" y="480" />
              <mxPoint x="545" y="480" />
            </Array>
          </mxGeometry>
        </mxCell>
        <mxCell id="Q2jFAfs4uQEABFIioy76-44" value="Se presiona la opcion &quot;Cafe&quot; /&lt;div&gt;Sirve cafe&lt;/div&gt;" style="text;html=1;align=left;verticalAlign=middle;resizable=0;points=[];autosize=1;strokeColor=none;fillColor=none;fontSize=8;" vertex="1" parent="1">
          <mxGeometry x="440" y="450" width="130" height="30" as="geometry" />
        </mxCell>
        <mxCell id="Q2jFAfs4uQEABFIioy76-45" value="" style="endArrow=classic;html=1;rounded=0;exitX=0;exitY=0.5;exitDx=0;exitDy=0;entryX=0.008;entryY=0.056;entryDx=0;entryDy=0;entryPerimeter=0;" edge="1" parent="1" source="Q2jFAfs4uQEABFIioy76-19" target="Q2jFAfs4uQEABFIioy76-19">
          <mxGeometry width="50" height="50" relative="1" as="geometry">
            <mxPoint x="270" y="390" as="sourcePoint" />
            <mxPoint x="320" y="340" as="targetPoint" />
            <Array as="points">
              <mxPoint x="340" y="390" />
            </Array>
          </mxGeometry>
        </mxCell>
        <mxCell id="Q2jFAfs4uQEABFIioy76-47" value="Se presiona la opcion &quot;Capuchino&quot; [El recipiente de leche no tiene leche suficiente] /&lt;div&gt;Emite un pitido de error&lt;/div&gt;" style="text;html=1;align=right;verticalAlign=middle;resizable=0;points=[];autosize=1;strokeColor=none;fillColor=none;fontSize=8;" vertex="1" parent="1">
          <mxGeometry x="15" y="360" width="320" height="30" as="geometry" />
        </mxCell>
      </root>
    </mxGraphModel>
  </diagram>
</mxfile>
